<svg width="500" height="487" viewBox="0 0 500 487" fill="none" xmlns="http://www.w3.org/2000/svg">
<path d="M249.033 0C111.514 0 0 111.494 0 249.033C0 359.064 71.3555 452.412 170.305 485.342C182.75 487.646 187.32 479.939 187.32 473.361C187.32 467.424 187.088 447.805 186.982 426.996C117.699 442.061 103.08 397.613 103.08 397.613C91.752 368.828 75.4297 361.176 75.4297 361.176C52.8359 345.719 77.1328 346.035 77.1328 346.035C102.141 347.793 115.309 371.699 115.309 371.699C137.52 409.771 173.566 398.764 187.777 392.402C190.012 376.305 196.467 365.32 203.588 359.102C148.275 352.803 90.127 331.449 90.127 236.027C90.127 208.84 99.8555 186.623 115.787 169.184C113.201 162.91 104.678 137.582 118.199 103.279C118.199 103.279 139.111 96.5859 186.701 128.807C206.564 123.287 227.869 120.521 249.033 120.428C270.197 120.521 291.518 123.287 311.42 128.807C358.953 96.5859 379.836 103.279 379.836 103.279C393.391 137.582 384.863 162.91 382.277 169.184C398.244 186.623 407.906 208.838 407.906 236.027C407.906 331.676 349.648 352.738 294.195 358.902C303.127 366.631 311.086 381.787 311.086 405.02C311.086 438.34 310.797 465.158 310.797 473.361C310.797 479.988 315.279 487.754 327.904 485.309C426.799 452.342 498.064 359.027 498.064 249.033C498.064 111.494 386.566 0 249.033 0Z" fill="white"/>
<path d="M93.2716 354.754C92.7247 355.99 90.7755 356.361 89.004 355.514C87.1974 354.701 86.1817 353.014 86.7677 351.771C87.3048 350.498 89.254 350.143 91.0567 350.998C92.8673 351.809 93.8985 353.512 93.2716 354.754ZM105.522 365.684C104.334 366.785 102.012 366.273 100.436 364.533C98.8067 362.797 98.5021 360.477 99.7071 359.357C100.932 358.258 103.184 358.771 104.817 360.51C106.445 362.266 106.762 364.572 105.52 365.686M113.926 379.668C112.399 380.728 109.902 379.734 108.361 377.519C106.836 375.307 106.836 372.65 108.395 371.586C109.942 370.521 112.399 371.479 113.961 373.676C115.484 375.928 115.484 378.584 113.924 379.67M128.137 395.865C126.772 397.369 123.865 396.967 121.736 394.912C119.561 392.904 118.953 390.055 120.322 388.549C121.703 387.041 124.627 387.465 126.772 389.502C128.934 391.506 129.592 394.377 128.137 395.865ZM146.504 401.334C145.904 403.283 143.104 404.17 140.283 403.342C137.467 402.488 135.623 400.203 136.192 398.232C136.777 396.27 139.59 395.346 142.432 396.232C145.244 397.082 147.09 399.35 146.504 401.334ZM167.41 403.652C167.481 405.707 165.088 407.41 162.127 407.447C159.149 407.512 156.74 405.85 156.709 403.83C156.709 401.756 159.047 400.068 162.024 400.02C164.984 399.961 167.41 401.611 167.41 403.652ZM187.945 402.865C188.301 404.869 186.242 406.928 183.303 407.475C180.412 408.002 177.736 406.766 177.367 404.779C177.008 402.725 179.106 400.668 181.99 400.135C184.936 399.623 187.57 400.828 187.945 402.865Z" fill="white"/>
</svg>
